# xmcd
#
# Track frame offsets: 
#        150
#        15324
#        27592
#        40889
#        54169
#        65306
#        76822
#        94156
#        109961
#        123172
#        136411
#        147372
#        161136
#        174028
#        187163
#        198906
#        213765
#        225489
#        239450
#        250601
#        263584
#        277402
#
# Disc length: 3886 seconds
#
# Revision: 2
# Processed by: cddbd v1.5.2PL0 Copyright (c) Steve Scherf et al.
# Submitted via: ExactAudioCopyFreeDBPlugin 1.0
#
DISCID=2b0f2c16
DTITLE=Otis Redding - CD3 - The King of Soul
DYEAR=2014
DGENRE=R&B
TTITLE0=Try A Little Tenderness
TTITLE1=FA-FA-FA-FA-FA
TTITLE2=I'm Sick Y'All
TTITLE3=Tennessee Waltz
TTITLE4=Sweet Lorene
TTITLE5=Day Tripper
TTITLE6=You're Still My Baby
TTITLE7=Hawg For You
TTITLE8=I Love You More Than Words Can Say
TTITLE9=Let Me Come On Home
TTITLE10=Open The Door
TTITLE11=Tramp (Otis and Carla)
TTITLE12=Knock On Wood (Otis and Carla)
TTITLE13=Let Me Be Good To You (Otis and Carla)
TTITLE14=Lovey Dovey (Otis and Carla)
TTITLE15=New Years Resolution (Otis and Carla)
TTITLE16=OOH Carla,OOH Otis (Otis and Carla)
TTITLE17=White Christmas
TTITLE18=Merry Christmas Baby
TTITLE19=Glory Of Love
TTITLE20=The Huckle-Buck
TTITLE21=Tell The Truth
EXTD=
EXTT0=
EXTT1=
EXTT2=
EXTT3=
EXTT4=
EXTT5=
EXTT6=
EXTT7=
EXTT8=
EXTT9=
EXTT10=
EXTT11=
EXTT12=
EXTT13=
EXTT14=
EXTT15=
EXTT16=
EXTT17=
EXTT18=
EXTT19=
EXTT20=
EXTT21=
PLAYORDER=
